<svg xmlns="http://www.w3.org/2000/svg" width="50.479" height="52.781" viewBox="0 0 50.479 52.781">
  <g id="gift_1_" data-name="gift (1)" transform="translate(-11.165 0)">
    <path id="Контур_24" data-name="Контур 24" d="M22.438,121.564,44.022,109.12l21.584,12.444.015-.009v16.627l-21.6,12.47-21.6-12.47V121.555Z" transform="translate(-10.097 -97.871)" fill="#ed7064"/>
    <path id="Контур_25" data-name="Контур 25" d="M22.423,246.377l21.6,12.47V242.22l-21.6-12.47Z" transform="translate(-10.097 -206.065)" fill="#c40041"/>
    <path id="Контур_26" data-name="Контур 26" d="M231.939,242.22l21.6-12.47v16.627l-21.6,12.47Z" transform="translate(-198.015 -206.065)" fill="#f43834"/>
    <path id="Контур_27" data-name="Контур 27" d="M11.181,53.641,33.924,40.528,56.667,53.641l.016-.009v5.752L33.924,72.524,11.165,59.384V53.632Z" transform="translate(0 -36.35)" fill="#ff8a5c"/>
    <path id="Контур_28" data-name="Контур 28" d="M11.165,173.394l22.759,13.14v-5.753l-22.759-13.14Z" transform="translate(0 -150.359)" fill="#f43834"/>
    <path id="Контур_29" data-name="Контур 29" d="M231.939,180.781l22.759-13.14v5.752l-22.759,13.14Z" transform="translate(-198.015 -150.359)" fill="#ff5331"/>
    <path id="Контур_30" data-name="Контур 30" d="M93.92,123.5l-5.654-3.264V97.861l22.717-13.116L116.634,88,93.92,101.117Z" transform="translate(-69.153 -76.009)" fill="#ff812c"/>
    <path id="Контур_31" data-name="Контур 31" d="M124.24,122.856l5.654-3.264V97.214L107.177,84.1l-5.651,3.258L124.24,100.47Z" transform="translate(-81.046 -75.428)" fill="#ff9f2c"/>
    <g id="Сгруппировать_8" data-name="Сгруппировать 8" transform="translate(19.113 8.67)">
      <path id="Контур_32" data-name="Контур 32" d="M124.24,100.47l5.654-3.257L107.177,84.1l-5.651,3.258Z" transform="translate(-100.159 -84.098)" fill="#ffd800"/>
      <path id="Контур_33" data-name="Контур 33" d="M93.92,101.117l-5.654-3.257,22.717-13.116L116.634,88Z" transform="translate(-88.266 -84.678)" fill="#ffd800"/>
    </g>
    <g id="Сгруппировать_9" data-name="Сгруппировать 9" transform="translate(27.697 11.496)">
      <path id="Контур_34" data-name="Контур 34" d="M235.339,121.145l-1.312-3.22,5.53-1.758-25.815-4.656-4.216,4.978Z" transform="translate(-205.61 -111.512)" fill="#f0c419"/>
      <path id="Контур_35" data-name="Контур 35" d="M177.539,140.239l-2.681-2.213-3.329,4.754,3.261-26.028,6.01-2.538Z" transform="translate(-171.529 -113.935)" fill="#f0c419"/>
    </g>
    <path id="Контур_36" data-name="Контур 36" d="M247.3,13.878a1.832,1.832,0,0,1-.313-1.73c.982-2.963,3.765-10.549,8.4-11.954,4.332-1.313,9.785,4.314,6.33,9.658-2.751,4.255-9.275,5.509-11.818,5.843a1.834,1.834,0,0,1-1.668-.664Z" transform="translate(-211.424 0)" fill="#ffd800"/>
    <path id="Контур_37" data-name="Контур 37" d="M282.663,57.459c2.042-1.117,3.118.156,2.42,2.217s-4.265,4.025-6.384,5.062a19.086,19.086,0,0,1-5.028,1.411S280.622,58.576,282.663,57.459Z" transform="translate(-235.446 -51.163)" fill="#dca700"/>
    <path id="Контур_38" data-name="Контур 38" d="M169.631,94.493a4.266,4.266,0,0,1,2.32-.918,3.515,3.515,0,0,0,2.642-1.525,4.266,4.266,0,1,1,3.78,6.681,3.243,3.243,0,0,0-2.526,1.459,4.265,4.265,0,0,1-7.473-.681A4.276,4.276,0,0,1,169.631,94.493Z" transform="translate(-140.693 -80.906)" fill="#ffe252"/>
    <path id="Контур_39" data-name="Контур 39" d="M55.977,148.716a1.832,1.832,0,0,0-1.534-.859c-3.121-.035-11.2.128-14.037,4.055-2.651,3.669.9,10.656,7.073,9.128,4.918-1.217,8.227-6.978,9.371-9.274a1.834,1.834,0,0,0-.085-1.793Z" transform="translate(-25.429 -132.611)" fill="#ffd800"/>
    <path id="Контур_40" data-name="Контур 40" d="M85.867,186.983c-1.721,1.567-.866,3,1.309,3.01s5.194-2.723,6.863-4.39a19.087,19.087,0,0,0,2.97-4.3S87.587,185.416,85.867,186.983Z" transform="translate(-66.179 -162.617)" fill="#dca700"/>
  </g>
</svg>
