<svg xmlns="http://www.w3.org/2000/svg" width="59.916" height="52.841" viewBox="0 0 59.916 52.841">
  <g id="family" transform="translate(-12.137 -15.706)">
    <path id="Контур_22" data-name="Контур 22" d="M65.694,45.675A17.106,17.106,0,0,0,58.04,34.757,11.605,11.605,0,1,0,39.1,21.494,11.607,11.607,0,1,0,20.15,34.758a16.954,16.954,0,0,0-8.012,14.359v3.03a1.572,1.572,0,0,0,1.572,1.572H25.148v1.726a1.572,1.572,0,0,0,1.572,1.572H47.585c3.613,0,3.792-3.021,6.535-5.606,1.835-1.73,7.232-3.171,9.034-3.357C65.576,47.8,65.753,46.342,65.694,45.675Zm-3.278-.185A16.176,16.176,0,0,0,52.563,49.4a14.068,14.068,0,0,0-5.835-8.052,9.669,9.669,0,0,0,1.4-2.466c.335.029.673.047,1.011.047a11.55,11.55,0,0,0,6.45-1.96A13.948,13.948,0,0,1,62.416,45.49ZM32.566,35.414A6.529,6.529,0,1,1,39.1,41.939a6.535,6.535,0,0,1-6.531-6.525ZM49.134,18.85a8.465,8.465,0,1,1,0,16.931c-.126,0-.251,0-.376-.01,0-.119.009-.237.009-.357A9.683,9.683,0,0,0,40.79,25.9a8.478,8.478,0,0,1,8.344-7.047Zm-20.079,0A8.481,8.481,0,0,1,37.4,25.9a9.685,9.685,0,0,0-7.981,9.518c0,.12,0,.238.009.357-.125.005-.25.01-.376.01a8.465,8.465,0,1,1,0-16.931ZM15.281,49.117a13.809,13.809,0,0,1,7.327-12.15,11.551,11.551,0,0,0,6.447,1.958c.339,0,.676-.018,1.011-.047a9.657,9.657,0,0,0,1.4,2.465,14.021,14.021,0,0,0-6.1,9.232H15.281V49.117Zm13.01,4.756V53a10.843,10.843,0,0,1,5.59-9.451,9.642,9.642,0,0,0,10.428,0,10.866,10.866,0,0,1,5.568,8.79,16.314,16.314,0,0,0-.962,1.531H28.292Z" transform="translate(0 0)" fill="#08bde2"/>
    <path id="Контур_23" data-name="Контур 23" d="M359.844,363.956a5.42,5.42,0,0,0-7.222.279,6.172,6.172,0,0,0,0,8.486l.042.042,6.088,5.873a1.572,1.572,0,0,0,2.183,0l6.088-5.873.04-.04a6.163,6.163,0,0,0,0-8.488A5.417,5.417,0,0,0,359.844,363.956Zm4.972,6.566-4.974,4.8-4.973-4.8a3.038,3.038,0,0,1,.016-4.105,2.325,2.325,0,0,1,3.205.172l.056.053a2.1,2.1,0,0,0,3.4,0l.056-.052a2.322,2.322,0,0,1,3.2-.171A3.031,3.031,0,0,1,364.815,370.522Z" transform="translate(-296.703 -310.531)" fill="#08bde2"/>
  </g>
</svg>
