<svg xmlns="http://www.w3.org/2000/svg" width="59.647" height="52.163" viewBox="0 0 59.647 52.163">
  <g id="death" transform="translate(0 -32.121)">
    <path id="Контур_19" data-name="Контур 19" d="M182.726,322.353a1.747,1.747,0,0,0-2.311-.876l-8.641,3.888-8.641-3.888a1.747,1.747,0,1,0-1.434,3.187l5.817,2.617L161.7,329.9a1.747,1.747,0,0,0,1.434,3.187l8.641-3.888,8.641,3.888a1.747,1.747,0,0,0,1.434-3.187l-5.817-2.618,5.817-2.617A1.748,1.748,0,0,0,182.726,322.353Z" transform="translate(-141.951 -255.51)" fill="#08bde2"/>
    <path id="Контур_20" data-name="Контур 20" d="M194.676,183.555a1.748,1.748,0,0,0,1.747,1.747h7.486a1.748,1.748,0,0,0,1.747-1.747v-2.589a7.362,7.362,0,1,0-10.981,0Zm5.491-11.354a3.861,3.861,0,0,1,2.581,6.738,1.748,1.748,0,0,0-.586,1.305v1.563h-3.991v-1.563a1.748,1.748,0,0,0-.585-1.305,3.861,3.861,0,0,1,2.581-6.738Z" transform="translate(-170.343 -120.673)" fill="#08bde2"/>
    <path id="Контур_21" data-name="Контур 21" d="M58.851,75.566,34.922,35.01a5.943,5.943,0,0,0-10.2,0L.8,75.565A5.737,5.737,0,0,0,.8,81.4a5.934,5.934,0,0,0,5.1,2.886H53.753a5.934,5.934,0,0,0,5.1-2.886A5.736,5.736,0,0,0,58.851,75.566Zm-3.011,4.055a2.425,2.425,0,0,1-2.088,1.168H5.894A2.425,2.425,0,0,1,3.806,79.62a2.241,2.241,0,0,1,0-2.278l23.93-40.556a2.449,2.449,0,0,1,4.176,0l23.93,40.556A2.241,2.241,0,0,1,55.841,79.621Z" transform="translate(0 0)" fill="#08bde2"/>
  </g>
</svg>
