<svg xmlns="http://www.w3.org/2000/svg" width="53.998" height="54" viewBox="0 0 53.998 54">
  <g id="meds" transform="translate(-0.001)">
    <path id="Контур_17" data-name="Контур 17" d="M49.827,4.173a14.241,14.241,0,0,0-20.142,0L16.929,16.928,4.173,29.685A14.243,14.243,0,1,0,24.315,49.827L37.071,37.072,49.827,24.315a14.243,14.243,0,0,0,0-20.142Zm-28.2,42.969A10.445,10.445,0,0,1,6.858,32.371L18.272,20.957,33.043,35.73ZM47.142,21.629,35.728,33.044,20.957,18.271,32.371,6.858A10.445,10.445,0,0,1,47.142,21.629Zm0,0" transform="translate(0)" fill="#08bde2"/>
    <path id="Контур_18" data-name="Контур 18" d="M322.548,64.632a1.9,1.9,0,0,1-1.569-.825,4.749,4.749,0,0,0-7.28-.681,1.9,1.9,0,0,1-2.685-2.685,8.548,8.548,0,0,1,13.1,1.219,1.9,1.9,0,0,1-1.565,2.972Zm0,0" transform="translate(-277.713 -51.827)" fill="#08bde2"/>
  </g>
</svg>
