<svg xmlns="http://www.w3.org/2000/svg" width="77.576" height="50" viewBox="0 0 77.576 50">
  <g id="mask_1_" data-name="mask (1)" transform="translate(0 -91)">
    <g id="Сгруппировать_7" data-name="Сгруппировать 7" transform="translate(0 91)">
      <g id="Сгруппировать_6" data-name="Сгруппировать 6" transform="translate(0 0)">
        <path id="Контур_12" data-name="Контур 12" d="M70.758,95.545a6.83,6.83,0,0,0-6.406,4.482c-5.85-.4-9.8-2.668-13.626-4.867C47,93.021,43.48,91,38.788,91s-8.212,2.021-11.938,4.161c-3.828,2.2-7.775,4.465-13.626,4.867A6.818,6.818,0,0,0,0,102.364v4.545s0,0,0,0a2.3,2.3,0,0,0,.186.9l0,0a82.768,82.768,0,0,0,10.037,16.415,53.1,53.1,0,0,0,12.012,11.421A29.684,29.684,0,0,0,38.788,141a29.684,29.684,0,0,0,16.551-5.352,53.107,53.107,0,0,0,12.012-11.421,82.757,82.757,0,0,0,10.037-16.415,2.324,2.324,0,0,0,.187-.9s0,0,0,0v-4.545A6.826,6.826,0,0,0,70.758,95.545ZM9.091,114.714a78.084,78.084,0,0,1-4.545-8.3v-4.055a2.273,2.273,0,0,1,4.545,0Zm54.848,6.5c-6.265,7.987-14.961,15.242-25.152,15.242S19.9,129.2,13.636,121.213V104.557c6.825-.486,11.4-3.111,15.477-5.454,3.324-1.909,6.195-3.557,9.675-3.557s6.351,1.648,9.675,3.557c4.08,2.343,8.652,4.968,15.477,5.454Zm9.091-14.794a78.1,78.1,0,0,1-4.545,8.3V102.364a2.273,2.273,0,0,1,4.545,0Zm-29.7,7.309H41.061v-2.273a2.273,2.273,0,1,0-4.545,0v2.273H34.242a2.273,2.273,0,1,0,0,4.545h2.273v2.273a2.273,2.273,0,0,0,4.545,0v-2.273h2.273a2.273,2.273,0,1,0,0-4.545Z" transform="translate(0 -91)" fill="#08bde2"/>
      </g>
    </g>
  </g>
</svg>
