<svg xmlns="http://www.w3.org/2000/svg" width="70.736" height="53.881" viewBox="0 0 70.736 53.881">
  <g id="joint" transform="translate(70.736 -61) rotate(90)">
    <path id="Контур_13" data-name="Контур 13" d="M136.084,0V10.613a23.288,23.288,0,0,1-4.7,13.828c-2.4,3.269-3.076,6.006-2,8.136,1.351,2.67,4.6,2.79,4.63,2.79a43.329,43.329,0,0,0,11.78-1.967,47.583,47.583,0,0,1,10.187-1.966c3.443-.371,5.719-.617,6.59-2.6.815-1.851-.545-3.7-1.057-4.4a23.288,23.288,0,0,1-4.7-13.828V0Zm22.088,26.9.055.076c-.746.132-1.791.244-2.694.342a51.126,51.126,0,0,0-11.044,2.152l-.016.005a39.7,39.7,0,0,1-10.35,1.752c-.343-.053-.931-.258-1.052-.533-.158-.361.011-1.567,1.647-3.793a27.4,27.4,0,0,0,5.509-16.283V4.145h12.434v6.469A27.4,27.4,0,0,0,158.171,26.9Z" transform="translate(-58.505 0)" fill="#08bde2"/>
    <path id="Контур_14" data-name="Контур 14" d="M164.2,291.368V280.755a23.288,23.288,0,0,1,4.7-13.828c2.4-3.269,3.076-6.007,2-8.136-1.351-2.67-4.6-2.79-4.63-2.79a43.326,43.326,0,0,0-11.78,1.967,47.587,47.587,0,0,1-10.187,1.966c-3.444.372-5.719.617-6.59,2.6-.815,1.851.545,3.7,1.057,4.4a23.288,23.288,0,0,1,4.7,13.828v10.613Zm-22.088-26.9-.055-.076c.746-.132,1.791-.244,2.693-.342A51.129,51.129,0,0,0,155.8,261.9l.016-.005a39.7,39.7,0,0,1,10.35-1.752c.343.053.931.258,1.052.533.158.361-.011,1.567-1.647,3.793a27.4,27.4,0,0,0-5.509,16.283v6.469H147.623v-6.469a27.4,27.4,0,0,0-5.509-16.283Z" transform="translate(-65.899 -220.632)" fill="#08bde2"/>
    <path id="Контур_15" data-name="Контур 15" d="M66.057,142.24a26.951,26.951,0,0,0,0,31.433l3.365-2.42a22.806,22.806,0,0,1,0-26.592Z" transform="translate(0 -122.589)" fill="#08bde2"/>
    <path id="Контур_16" data-name="Контур 16" d="M393.407,173.673a26.951,26.951,0,0,0,0-31.433l-3.365,2.42a22.806,22.806,0,0,1,0,26.592Z" transform="translate(-283.583 -122.589)" fill="#08bde2"/>
  </g>
</svg>
