<svg xmlns="http://www.w3.org/2000/svg" width="53.279" height="52.753" viewBox="0 0 53.279 52.753">
  <g id="XMLID_195_" transform="translate(-0.001 -2.526)">
    <g id="XMLID_441_" transform="translate(0.001 20.062)">
      <path id="XMLID_273_" d="M21.088,206.173a9.672,9.672,0,0,1-8.866-5.723,12.861,12.861,0,0,0-6.5-6.5A9.713,9.713,0,0,1,8.258,175.48a5.368,5.368,0,0,0,3.076-1.542l.063-.064a10.654,10.654,0,0,1,9.138-2.8,16.886,16.886,0,0,1,9.624,4.941,16.886,16.886,0,0,1,4.941,9.624,10.653,10.653,0,0,1-2.8,9.138l-.057.057a5.376,5.376,0,0,0-1.544,3.08,9.672,9.672,0,0,1-9.606,8.264Zm-2.241-32.1a7.247,7.247,0,0,0-5.241,2.011l-.042.042a8.467,8.467,0,0,1-4.847,2.445,6.53,6.53,0,0,0-3.727,1.9A6.593,6.593,0,0,0,7,191.1a15.982,15.982,0,0,1,8.075,8.075A6.589,6.589,0,0,0,27.6,197.452a8.474,8.474,0,0,1,2.444-4.85l.039-.039A7.607,7.607,0,0,0,32,186.034a13.756,13.756,0,0,0-4.052-7.815,13.318,13.318,0,0,0-9.1-4.148Z" transform="translate(-0.001 -170.956)" fill="#08bde2"/>
    </g>
    <g id="XMLID_481_" transform="translate(25.042 2.526)">
      <path id="XMLID_270_" d="M246.964,18.352a6.4,6.4,0,0,1-4.613-1.833,6.566,6.566,0,0,1-1.78-5.531,9.573,9.573,0,0,1,2.81-5.6,9.573,9.573,0,0,1,5.6-2.81,6.568,6.568,0,0,1,5.531,1.78,6.567,6.567,0,0,1,1.78,5.531,9.572,9.572,0,0,1-2.81,5.6,9.572,9.572,0,0,1-5.6,2.81,7.99,7.99,0,0,1-.918.054Zm2.92-12.7a4.759,4.759,0,0,0-.546.032A6.444,6.444,0,0,0,245.59,7.6a6.444,6.444,0,0,0-1.915,3.749,3.513,3.513,0,0,0,.885,2.964,3.514,3.514,0,0,0,2.964.885,6.444,6.444,0,0,0,3.749-1.916,6.443,6.443,0,0,0,1.915-3.749,3.513,3.513,0,0,0-.885-2.964A3.341,3.341,0,0,0,249.884,5.65Z" transform="translate(-240.518 -2.526)" fill="#08bde2"/>
    </g>
    <g id="XMLID_483_" transform="translate(4.076 3.321)">
      <path id="XMLID_267_" d="M45.585,25.985a6.4,6.4,0,0,1-4.612-1.833,6.566,6.566,0,0,1-1.78-5.531A9.949,9.949,0,0,1,47.6,10.213a6.363,6.363,0,0,1,7.31,7.31,9.572,9.572,0,0,1-2.81,5.6,9.572,9.572,0,0,1-5.6,2.81A7.986,7.986,0,0,1,45.585,25.985Zm2.921-12.7a4.758,4.758,0,0,0-.546.032A6.836,6.836,0,0,0,42.3,18.98a3.255,3.255,0,0,0,3.849,3.849,6.444,6.444,0,0,0,3.749-1.916,6.444,6.444,0,0,0,1.915-3.749,3.514,3.514,0,0,0-.885-2.964A3.341,3.341,0,0,0,48.505,13.284Z" transform="translate(-39.139 -10.159)" fill="#08bde2"/>
    </g>
    <g id="XMLID_84_" transform="translate(37.453 14.937)">
      <path id="XMLID_242_" d="M366.168,137.557a6.4,6.4,0,0,1-4.612-1.833,6.566,6.566,0,0,1-1.78-5.531,9.948,9.948,0,0,1,8.409-8.409,6.363,6.363,0,0,1,7.31,7.31,9.948,9.948,0,0,1-8.409,8.409A8.034,8.034,0,0,1,366.168,137.557Zm2.921-12.7a4.757,4.757,0,0,0-.546.032,6.836,6.836,0,0,0-5.664,5.664,3.255,3.255,0,0,0,3.849,3.849,6.835,6.835,0,0,0,5.664-5.664,3.514,3.514,0,0,0-.885-2.964A3.341,3.341,0,0,0,369.088,124.855Z" transform="translate(-359.722 -121.731)" fill="#08bde2"/>
    </g>
    <g id="XMLID_3_" transform="translate(36.403 35.648)">
      <path id="XMLID_239_" d="M356.084,336.484a6.4,6.4,0,0,1-4.612-1.833,6.567,6.567,0,0,1-1.78-5.531,9.948,9.948,0,0,1,8.409-8.409,6.363,6.363,0,0,1,7.31,7.31A9.948,9.948,0,0,1,357,336.431,8.008,8.008,0,0,1,356.084,336.484Zm2.921-12.7a4.751,4.751,0,0,0-.546.032,6.836,6.836,0,0,0-5.664,5.664,3.255,3.255,0,0,0,3.849,3.849,6.835,6.835,0,0,0,5.664-5.664,3.514,3.514,0,0,0-.885-2.964A3.341,3.341,0,0,0,359,323.783Z" transform="translate(-349.638 -320.658)" fill="#08bde2"/>
    </g>
  </g>
</svg>
