<svg xmlns="http://www.w3.org/2000/svg" width="50.602" height="60" viewBox="0 0 50.602 60">
  <g id="file_1_" data-name="file (1)" transform="translate(-40.097)">
    <g id="Сгруппировать_21" data-name="Сгруппировать 21" transform="translate(40.097)">
      <g id="Сгруппировать_20" data-name="Сгруппировать 20" transform="translate(0)">
        <path id="Контур_44" data-name="Контур 44" d="M87.808,7.952h-5.06V2.892A2.9,2.9,0,0,0,79.857,0H42.988A2.9,2.9,0,0,0,40.1,2.892V49.157a2.9,2.9,0,0,0,2.892,2.892h5.06v5.06A2.9,2.9,0,0,0,50.94,60H75.518a8.437,8.437,0,0,0,5-1.981l8.078-7.6A7.678,7.678,0,0,0,90.7,45.542v-34.7A2.9,2.9,0,0,0,87.808,7.952ZM48.049,10.843V49.879h-5.06a.733.733,0,0,1-.723-.723V2.892a.733.733,0,0,1,.723-.723H79.857a.733.733,0,0,1,.723.723v5.06H50.94A2.9,2.9,0,0,0,48.049,10.843ZM87.106,48.836l-8.078,7.6a3.837,3.837,0,0,1-.619.453V50.241a1.813,1.813,0,0,1,1.807-1.807h7.233A3.038,3.038,0,0,1,87.106,48.836Zm1.423-3.294a3.372,3.372,0,0,1-.1.723H80.217a3.984,3.984,0,0,0-3.976,3.976v7.5a3.78,3.78,0,0,1-.723.087H50.94a.732.732,0,0,1-.723-.723V10.843a.732.732,0,0,1,.723-.723H87.808a.733.733,0,0,1,.723.723Z" transform="translate(-40.097)" fill="#08bde2"/>
      </g>
    </g>
    <g id="Сгруппировать_23" data-name="Сгруппировать 23" transform="translate(57.808 18.072)">
      <g id="Сгруппировать_22" data-name="Сгруппировать 22">
        <path id="Контур_45" data-name="Контур 45" d="M213.283,154.216H192.319a1.084,1.084,0,1,0,0,2.169h20.964a1.084,1.084,0,0,0,0-2.169Z" transform="translate(-191.235 -154.216)" fill="#08bde2"/>
      </g>
    </g>
    <g id="Сгруппировать_25" data-name="Сгруппировать 25" transform="translate(57.808 32.53)">
      <g id="Сгруппировать_24" data-name="Сгруппировать 24">
        <path id="Контур_46" data-name="Контур 46" d="M213.283,277.59H192.319a1.084,1.084,0,1,0,0,2.169h20.964a1.084,1.084,0,0,0,0-2.169Z" transform="translate(-191.235 -277.59)" fill="#08bde2"/>
      </g>
    </g>
    <g id="Сгруппировать_27" data-name="Сгруппировать 27" transform="translate(57.809 39.759)">
      <g id="Сгруппировать_26" data-name="Сгруппировать 26">
        <path id="Контур_47" data-name="Контур 47" d="M203.886,339.277H192.32a1.084,1.084,0,1,0,0,2.169h11.566a1.084,1.084,0,0,0,0-2.169Z" transform="translate(-191.236 -339.277)" fill="#08bde2"/>
      </g>
    </g>
    <g id="Сгруппировать_29" data-name="Сгруппировать 29" transform="translate(57.808 25.301)">
      <g id="Сгруппировать_28" data-name="Сгруппировать 28">
        <path id="Контур_48" data-name="Контур 48" d="M213.283,215.9H192.319a1.084,1.084,0,1,0,0,2.169h20.964a1.084,1.084,0,0,0,0-2.169Z" transform="translate(-191.235 -215.903)" fill="#08bde2"/>
      </g>
    </g>
  </g>
</svg>
