<svg xmlns="http://www.w3.org/2000/svg" width="60.352" height="60" viewBox="0 0 60.352 60">
  <g id="startup" transform="translate(0 -1.492)">
    <g id="Сгруппировать_11" data-name="Сгруппировать 11" transform="translate(0 59.121)">
      <g id="Сгруппировать_10" data-name="Сгруппировать 10" transform="translate(0)">
        <circle id="Эллипс_10" data-name="Эллипс 10" cx="1.186" cy="1.186" r="1.186" fill="#08bde2"/>
      </g>
    </g>
    <g id="Сгруппировать_13" data-name="Сгруппировать 13" transform="translate(30.29 29.049)">
      <g id="Сгруппировать_12" data-name="Сгруппировать 12">
        <circle id="Эллипс_11" data-name="Эллипс 11" cx="1.183" cy="1.183" r="1.183" fill="#08bde2"/>
      </g>
    </g>
    <g id="Сгруппировать_15" data-name="Сгруппировать 15" transform="translate(38.374 13.754)">
      <g id="Сгруппировать_14" data-name="Сгруппировать 14">
        <path id="Контур_41" data-name="Контур 41" d="M334.148,106.991a5.035,5.035,0,1,0,0,7.124A5,5,0,0,0,334.148,106.991Zm-1.673,5.45a2.67,2.67,0,1,1,0-3.776A2.673,2.673,0,0,1,332.474,112.441Z" transform="translate(-325.551 -105.516)" fill="#08bde2"/>
      </g>
    </g>
    <g id="Сгруппировать_17" data-name="Сгруппировать 17" transform="translate(3.813 46.182)">
      <g id="Сгруппировать_16" data-name="Сгруппировать 16">
        <path id="Контур_42" data-name="Контур 42" d="M43.319,384.251a1.183,1.183,0,0,0-1.587.532l-1.41,2.831a3.906,3.906,0,0,1-3.218,2.148l-1.639.112a.7.7,0,0,1-.747-.748l.112-1.639a3.906,3.906,0,0,1,2.148-3.217l2.831-1.41a1.183,1.183,0,1,0-1.055-2.119l-2.831,1.41a6.281,6.281,0,0,0-3.454,5.174l-.112,1.639a3.068,3.068,0,0,0,3.061,3.278c.07,0,.14,0,.21-.007l1.639-.112a6.281,6.281,0,0,0,5.174-3.454l1.41-2.831A1.183,1.183,0,0,0,43.319,384.251Z" transform="translate(-32.35 -380.616)" fill="#08bde2"/>
      </g>
    </g>
    <g id="Сгруппировать_19" data-name="Сгруппировать 19" transform="translate(0.002 1.492)">
      <g id="Сгруппировать_18" data-name="Сгруппировать 18" transform="translate(0 0)">
        <path id="Контур_43" data-name="Контур 43" d="M59.551,2.281a2.74,2.74,0,0,0-2.1-.783l-1.1.07A35.706,35.706,0,0,0,30.983,14.653l-2.594,3.193-6.788-.2h-.035a20.022,20.022,0,0,0-14.251,5.9L.365,30.5a1.183,1.183,0,0,0,.776,2.019l14.716.756-.6.739a1.183,1.183,0,0,0-.121,1.312q.346.636.724,1.251l-3.49,4.143a1.184,1.184,0,0,0-.165,1.269,15.409,15.409,0,0,0,7.4,7.4,1.183,1.183,0,0,0,1.252-.151c.752-.61,1.619-1.333,2.457-2.033.6-.5,1.209-1.009,1.78-1.479q.512.308,1.037.595a1.183,1.183,0,0,0,1.291-.1l.807-.626.759,14.778A1.183,1.183,0,0,0,31,61.144l6.952-6.952a20.021,20.021,0,0,0,5.9-14.251V33.458L46.6,31.33A35.564,35.564,0,0,0,60.336,4.942l.028-.576A2.742,2.742,0,0,0,59.551,2.281ZM3.92,30.293l5.07-5.07a17.671,17.671,0,0,1,12.56-5.21l4.961.146L17.7,31ZM21.8,45.387c-.618.515-1.251,1.044-1.839,1.527a13,13,0,0,1-5.272-5.268l2.555-3.033a27.437,27.437,0,0,0,2.532,2.938l0,0h0a27.436,27.436,0,0,0,3.258,2.8C22.626,44.695,22.207,45.044,21.8,45.387Zm19.7-5.446a17.67,17.67,0,0,1-5.21,12.577l-5.07,5.07-.707-13.767L41.493,35.3v4.646ZM57.972,4.827A33.2,33.2,0,0,1,45.151,29.46l-18.561,14.4A25.059,25.059,0,0,1,22.3,40.7l6.258-6.258a1.183,1.183,0,1,0-1.674-1.674l-6.252,6.252A25.056,25.056,0,0,1,17.6,34.881L32.82,16.145A33.332,33.332,0,0,1,56.5,3.931l1.1-.07a.373.373,0,0,1,.4.391Z" transform="translate(-0.018 -1.492)" fill="#08bde2"/>
      </g>
    </g>
  </g>
</svg>
