<svg xmlns="http://www.w3.org/2000/svg" width="52.861" height="60" viewBox="0 0 52.861 60">
  <g id="save-money" transform="translate(-0.36)">
    <path id="Контур_49" data-name="Контур 49" d="M190.323,161.661a.936.936,0,0,0-.337-.012,2.237,2.237,0,0,1-1.979-2.219.984.984,0,1,0-1.968,0,4.21,4.21,0,0,0,3.1,4.054v.984a.984.984,0,0,0,1.968,0v-.925a4.2,4.2,0,0,0-.861-8.316,2.235,2.235,0,1,1,2.235-2.235.984.984,0,1,0,1.968,0,4.21,4.21,0,0,0-3.342-4.114v-.9a.984.984,0,1,0-1.968,0v.956a4.2,4.2,0,0,0,1.107,8.256,2.233,2.233,0,0,1,.082,4.465Zm0,0" transform="translate(-162.836 -128.916)" fill="#08bde2"/>
    <path id="Контур_50" data-name="Контур 50" d="M104.2,120.764a14.271,14.271,0,1,0,14.272-14.272A14.271,14.271,0,0,0,104.2,120.764Zm14.272-12.3a12.3,12.3,0,1,1-12.3,12.3A12.3,12.3,0,0,1,118.467,108.46Zm0,0" transform="translate(-91.061 -93.391)" fill="#08bde2"/>
    <path id="Контур_51" data-name="Контур 51" d="M46.528,330.277l-7.71,3.643a6.279,6.279,0,0,0-5.353-3.3l-7.117-.2a7.517,7.517,0,0,1-3.235-.835l-.724-.375a12.774,12.774,0,0,0-11.832.013l.045-1.641a.984.984,0,0,0-.957-1.011l-7.8-.215a.984.984,0,0,0-1.011.957L.36,344.439a.984.984,0,0,0,.957,1.011l7.8.215h.027a.984.984,0,0,0,.984-.957l.023-.819,2.027-1.086a3.478,3.478,0,0,1,2.6-.284l12.107,3.4.064.016a12.961,12.961,0,0,0,2.661.274,13.131,13.131,0,0,0,5.486-1.2.917.917,0,0,0,.122-.067l17.554-11.354a.985.985,0,0,0,.322-1.311,4.971,4.971,0,0,0-6.565-2ZM2.355,343.51l.417-15.159,5.836.161-.417,15.159Zm31.854-.258a11.159,11.159,0,0,1-6.824.762L15.31,340.624a5.442,5.442,0,0,0-4.057.444l-1.036.555.277-10.079a10.818,10.818,0,0,1,10.99-.586l.724.375a9.5,9.5,0,0,0,4.086,1.055l7.117.2a4.317,4.317,0,0,1,4.1,3.44l-10.6-.293a.984.984,0,0,0-.054,1.968l11.7.322h.027a.984.984,0,0,0,.983-.957,6.246,6.246,0,0,0-.1-1.277l7.908-3.736.023-.011a3.007,3.007,0,0,1,3.4.476Zm0,0" transform="translate(0 -286.207)" fill="#08bde2"/>
    <path id="Контур_52" data-name="Контур 52" d="M214.171,10.334V.984a.984.984,0,0,0-1.968,0v9.35a.984.984,0,0,0,1.968,0Zm0,0" transform="translate(-185.782)" fill="#08bde2"/>
    <path id="Контур_53" data-name="Контур 53" d="M274.171,45.413V40.984a.984.984,0,1,0-1.968,0v4.429a.984.984,0,1,0,1.968,0Zm0,0" transform="translate(-238.401 -35.079)" fill="#08bde2"/>
    <path id="Контур_54" data-name="Контур 54" d="M154.171,45.413V40.984a.984.984,0,1,0-1.968,0v4.429a.984.984,0,1,0,1.968,0Zm0,0" transform="translate(-133.163 -35.079)" fill="#08bde2"/>
  </g>
</svg>
