<svg xmlns="http://www.w3.org/2000/svg" width="51.494" height="60" viewBox="0 0 51.494 60">
  <g id="profits" transform="translate(-35.038)">
    <g id="Сгруппировать_54" data-name="Сгруппировать 54" transform="translate(62.461 15.404)">
      <g id="Сгруппировать_53" data-name="Сгруппировать 53">
        <path id="Контур_93" data-name="Контур 93" d="M279.8,149.526v-21.5a1.147,1.147,0,0,0-1.214-1.129h-4.7a1.18,1.18,0,0,0-1.25,1.129v19.4a11.328,11.328,0,0,0-2.306.3V134.365a1.188,1.188,0,0,0-1.238-1.153h-4.7a1.17,1.17,0,0,0-1.226,1.153v18.123a11.915,11.915,0,0,0-2.209,6.967,12.035,12.035,0,1,0,18.839-9.929Zm-4.734-20.2h2.306v18.912a10.817,10.817,0,0,0-2.306-.631ZM265.6,135.64h2.306v12.927a12.358,12.358,0,0,0-2.306,1.384Zm15.671,28.707a9.6,9.6,0,1,1-11.932-13.765,1.153,1.153,0,0,0,.4-.158,9.421,9.421,0,0,1,3.277-.583c.255,0,.5.012.753.036h.012a9.378,9.378,0,0,1,4.127,1.311A9.6,9.6,0,0,1,281.269,164.347Z" transform="translate(-260.962 -126.9)" fill="#08bde2"/>
      </g>
    </g>
    <g id="Сгруппировать_56" data-name="Сгруппировать 56" transform="translate(70.57 39.523)">
      <g id="Сгруппировать_55" data-name="Сгруппировать 55">
        <path id="Контур_94" data-name="Контур 94" d="M331.707,333.053a1.536,1.536,0,1,1,1.517-1.542,1.217,1.217,0,0,0,1.214,1.214,1.23,1.23,0,0,0,1.238-1.214,3.965,3.965,0,0,0-2.513-3.69v-1.008a1.214,1.214,0,0,0-2.428,0v.874a3.959,3.959,0,0,0-2.84,4.819,3.909,3.909,0,0,0,3.8,2.962,1.523,1.523,0,1,1-1.529,1.517,1.217,1.217,0,0,0-1.214-1.214,1.179,1.179,0,0,0-1.19,1.2v.012a3.974,3.974,0,0,0,2.962,3.824v.546a1.214,1.214,0,0,0,2.428,0v-.668a3.952,3.952,0,0,0-1.444-7.635Z" transform="translate(-327.761 -325.6)" fill="#08bde2"/>
      </g>
    </g>
    <g id="Сгруппировать_58" data-name="Сгруппировать 58" transform="translate(45.614 31.426)">
      <g id="Сгруппировать_57" data-name="Сгруппировать 57">
        <path id="Контур_95" data-name="Контур 95" d="M128.111,258.9h-4.734a1.217,1.217,0,0,0-1.214,1.214v19.057a1.217,1.217,0,0,0,1.214,1.214h4.734a1.217,1.217,0,0,0,1.214-1.214V260.114A1.217,1.217,0,0,0,128.111,258.9ZM126.9,278.079h-2.306V261.328H126.9Z" transform="translate(-122.163 -258.9)" fill="#08bde2"/>
      </g>
    </g>
    <g id="Сгруппировать_60" data-name="Сгруппировать 60" transform="translate(55.203 28.634)">
      <g id="Сгруппировать_59" data-name="Сгруппировать 59" transform="translate(0)">
        <path id="Контур_96" data-name="Контур 96" d="M207.111,235.9h-4.734a1.217,1.217,0,0,0-1.214,1.214v21.97a1.217,1.217,0,0,0,1.214,1.214h4.734a1.217,1.217,0,0,0,1.214-1.214v-21.97A1.217,1.217,0,0,0,207.111,235.9ZM205.9,257.87h-2.306V238.328H205.9Z" transform="translate(-201.163 -235.9)" fill="#08bde2"/>
      </g>
    </g>
    <g id="Сгруппировать_62" data-name="Сгруппировать 62" transform="translate(36.024 41.865)">
      <g id="Сгруппировать_61" data-name="Сгруппировать 61" transform="translate(0)">
        <path id="Контур_97" data-name="Контур 97" d="M49.111,344.9H44.377a1.217,1.217,0,0,0-1.214,1.214v8.618a1.217,1.217,0,0,0,1.214,1.214h4.734a1.217,1.217,0,0,0,1.214-1.214v-8.618A1.217,1.217,0,0,0,49.111,344.9ZM47.9,353.64H45.591v-6.312H47.9Z" transform="translate(-43.163 -344.9)" fill="#08bde2"/>
      </g>
    </g>
    <g id="Сгруппировать_64" data-name="Сгруппировать 64" transform="translate(35.038)">
      <g id="Сгруппировать_63" data-name="Сгруппировать 63" transform="translate(0)">
        <path id="Контур_98" data-name="Контур 98" d="M81.118,0l-8.3.012a1.214,1.214,0,0,0-.024,2.428h.024l5.377-.012L65.023,15.549l-4.6-4.564a1.335,1.335,0,0,0-1.724,0L35.393,34.291a1.21,1.21,0,0,0,1.724,1.7L59.573,13.534l4.6,4.637a1.215,1.215,0,0,0,.862.388,1.291,1.291,0,0,0,.862-.388L79.9,4.151l-.012,5.4a1.214,1.214,0,1,0,2.428,0l.012-8.327A1.228,1.228,0,0,0,81.118,0Z" transform="translate(-35.038)" fill="#08bde2"/>
      </g>
    </g>
  </g>
</svg>
