<svg xmlns="http://www.w3.org/2000/svg" width="60" height="60" viewBox="0 0 60 60">
  <g id="surface1" transform="translate(0 0.001)">
    <path id="Контур_82" data-name="Контур 82" d="M59,93H55.932L54,64.936A1,1,0,0,0,53,64H47a1,1,0,0,0-1,.932L44.066,93H42V87a1,1,0,0,0-1.625-.781L32,92.923V87a1,1,0,0,0-1.625-.781L22,92.923V87a1,1,0,0,0-1.625-.781L12,92.923V87a1,1,0,0,0-1.515-.857l-10,6A1,1,0,0,0,0,93v24a1,1,0,0,0,1,1H59a1,1,0,0,0,1-1V94A1,1,0,0,0,59,93ZM47.933,66h4.132l1.863,27H46.071ZM34,116V104h6v12Zm24,0H42V103a1,1,0,0,0-1-1H33a1,1,0,0,0-1,1v13H2V93.57l8-4.8V95a1,1,0,0,0,1.625.781L20,89.085V95a1,1,0,0,0,1.625.782L30,89.085V95a1,1,0,0,0,1.625.781L40,89.085V94a1,1,0,0,0,1,1H58v21Zm0,0" transform="translate(0 -58.005)" fill="#08bde2"/>
    <path id="Контур_83" data-name="Контур 83" d="M352.954,2a3.714,3.714,0,0,1,.972.752A3.5,3.5,0,0,0,356.161,4a3.65,3.65,0,0,0,2.356-1.3,4.682,4.682,0,0,1,.844-.7c.206.009.745.514,1.035.785A3.349,3.349,0,0,0,362.561,4a3.9,3.9,0,0,0,2.512-1.378c.245-.23.616-.579.688-.622.537,0,.66.178.99.654A2.529,2.529,0,0,0,368.961,4a1,1,0,0,0,0-2c-.2,0-.239-.014-.564-.483A2.955,2.955,0,0,0,365.76,0,3.211,3.211,0,0,0,363.7,1.163c-.332.313-.889.836-1.1.841a4.074,4.074,0,0,1-.842-.679A3.711,3.711,0,0,0,359.361,0a3.467,3.467,0,0,0-2.211,1.236,4.15,4.15,0,0,1-.961.764,3.891,3.891,0,0,1-.9-.71A3.627,3.627,0,0,0,352.96,0a1,1,0,1,0-.007,2Zm0,0" transform="translate(-318.961 0)" fill="#08bde2"/>
    <path id="Контур_84" data-name="Контур 84" d="M69,490.668H65a1,1,0,0,0-1,1v6a1,1,0,0,0,1,1h4a1,1,0,0,0,1-1v-6A1,1,0,0,0,69,490.668Zm-1,6H66v-4h2Zm0,0" transform="translate(-58 -444.669)" fill="#08bde2"/>
    <path id="Контур_85" data-name="Контур 85" d="M154.332,490.668h-4a1,1,0,0,0-1,1v6a1,1,0,0,0,1,1h4a1,1,0,0,0,1-1v-6A1,1,0,0,0,154.332,490.668Zm-1,6h-2v-4h2Zm0,0" transform="translate(-135.332 -444.669)" fill="#08bde2"/>
    <path id="Контур_86" data-name="Контур 86" d="M239.664,490.668h-4a1,1,0,0,0-1,1v6a1,1,0,0,0,1,1h4a1,1,0,0,0,1-1v-6A1,1,0,0,0,239.664,490.668Zm-1,6h-2v-4h2Zm0,0" transform="translate(-212.664 -444.669)" fill="#08bde2"/>
  </g>
</svg>
