<svg xmlns="http://www.w3.org/2000/svg" width="65.455" height="60" viewBox="0 0 65.455 60">
  <g id="discount-voucher" transform="translate(0 -1)">
    <path id="Контур_87" data-name="Контур 87" d="M19.455,23.909a5.455,5.455,0,1,1,5.455-5.455A5.46,5.46,0,0,1,19.455,23.909Zm0-8.182a2.727,2.727,0,1,0,2.727,2.727A2.732,2.732,0,0,0,19.455,15.727Z" transform="translate(24.182 20.727)" fill="#08bde2"/>
    <path id="Контур_88" data-name="Контур 88" d="M25.455,29.909a5.455,5.455,0,1,1,5.455-5.455A5.46,5.46,0,0,1,25.455,29.909Zm0-8.182a2.727,2.727,0,1,0,2.727,2.727A2.732,2.732,0,0,0,25.455,21.727Z" transform="translate(34.545 31.091)" fill="#08bde2"/>
    <path id="Контур_89" data-name="Контур 89" d="M16.363,40.272a1.362,1.362,0,0,1-1.075-2.2L34.38,13.526A1.364,1.364,0,1,1,36.532,15.2L17.441,39.748a1.37,1.37,0,0,1-1.077.524Z" transform="translate(25.909 20.728)" fill="#08bde2"/>
    <path id="Контур_90" data-name="Контур 90" d="M31.364,41.909H6.818A6.828,6.828,0,0,1,0,35.091V7.818A6.828,6.828,0,0,1,6.818,1H53.182A6.828,6.828,0,0,1,60,7.818V26.909a1.364,1.364,0,0,1-2.727,0V7.818a4.1,4.1,0,0,0-4.091-4.091H6.818A4.1,4.1,0,0,0,2.727,7.818V35.091a4.1,4.1,0,0,0,4.091,4.091H31.364a1.364,1.364,0,0,1,0,2.727Z" transform="translate(0 0)" fill="#08bde2"/>
    <path id="Контур_91" data-name="Контур 91" d="M58.636,6.727H1.364A1.364,1.364,0,0,1,1.364,4H58.636a1.364,1.364,0,0,1,0,2.727Z" transform="translate(0 5.182)" fill="#08bde2"/>
    <path id="Контур_92" data-name="Контур 92" d="M58.636,9.727H1.364A1.364,1.364,0,0,1,1.364,7H58.636a1.364,1.364,0,0,1,0,2.727Z" transform="translate(0 10.364)" fill="#08bde2"/>
  </g>
</svg>
