<svg xmlns="http://www.w3.org/2000/svg" width="57.144" height="60" viewBox="0 0 57.144 60">
  <g id="building" transform="translate(-12.186)">
    <g id="Сгруппировать_32" data-name="Сгруппировать 32" transform="translate(39.639 6.754)">
      <g id="Сгруппировать_31" data-name="Сгруппировать 31">
        <path id="Контур_57" data-name="Контур 57" d="M250.909,57.633h-3.37a1.087,1.087,0,0,0-1.085,1.086v4.044a1.087,1.087,0,0,0,1.085,1.085h3.37a1.087,1.087,0,0,0,1.085-1.086V58.719A1.087,1.087,0,0,0,250.909,57.633Zm-.629,4.5h-2.112V59.347h2.112Z" transform="translate(-246.454 -57.633)" fill="#08bde2"/>
      </g>
    </g>
    <g id="Сгруппировать_34" data-name="Сгруппировать 34" transform="translate(46.339 6.754)">
      <g id="Сгруппировать_33" data-name="Сгруппировать 33">
        <path id="Контур_58" data-name="Контур 58" d="M308.082,57.633h-3.37a1.087,1.087,0,0,0-1.085,1.086v4.044a1.087,1.087,0,0,0,1.085,1.085h3.37a1.087,1.087,0,0,0,1.085-1.086V58.719A1.087,1.087,0,0,0,308.082,57.633Zm-.629,4.5h-2.112V59.347h2.112Z" transform="translate(-303.627 -57.633)" fill="#08bde2"/>
      </g>
    </g>
    <g id="Сгруппировать_36" data-name="Сгруппировать 36" transform="translate(53.039 6.754)">
      <g id="Сгруппировать_35" data-name="Сгруппировать 35">
        <path id="Контур_59" data-name="Контур 59" d="M365.254,57.633h-3.37a1.087,1.087,0,0,0-1.085,1.086v4.044a1.087,1.087,0,0,0,1.085,1.085h3.37a1.087,1.087,0,0,0,1.086-1.086V58.719A1.087,1.087,0,0,0,365.254,57.633Zm-.629,4.5h-2.112V59.347h2.112Z" transform="translate(-360.799 -57.633)" fill="#08bde2"/>
      </g>
    </g>
    <g id="Сгруппировать_38" data-name="Сгруппировать 38" transform="translate(39.639 16.795)">
      <g id="Сгруппировать_37" data-name="Сгруппировать 37">
        <path id="Контур_60" data-name="Контур 60" d="M250.909,143.318h-3.37a1.087,1.087,0,0,0-1.085,1.086v4.044a1.087,1.087,0,0,0,1.085,1.086h3.37a1.087,1.087,0,0,0,1.085-1.086V144.4A1.087,1.087,0,0,0,250.909,143.318Zm-.629,4.5h-2.112v-2.786h2.112Z" transform="translate(-246.454 -143.318)" fill="#08bde2"/>
      </g>
    </g>
    <g id="Сгруппировать_40" data-name="Сгруппировать 40" transform="translate(46.339 16.795)">
      <g id="Сгруппировать_39" data-name="Сгруппировать 39">
        <path id="Контур_61" data-name="Контур 61" d="M308.082,143.318h-3.37a1.087,1.087,0,0,0-1.085,1.086v4.044a1.087,1.087,0,0,0,1.085,1.086h3.37a1.087,1.087,0,0,0,1.085-1.086V144.4A1.087,1.087,0,0,0,308.082,143.318Zm-.629,4.5h-2.112v-2.786h2.112Z" transform="translate(-303.627 -143.318)" fill="#08bde2"/>
      </g>
    </g>
    <g id="Сгруппировать_42" data-name="Сгруппировать 42" transform="translate(53.039 16.795)">
      <g id="Сгруппировать_41" data-name="Сгруппировать 41">
        <path id="Контур_62" data-name="Контур 62" d="M365.254,143.318h-3.37A1.087,1.087,0,0,0,360.8,144.4v4.044a1.087,1.087,0,0,0,1.085,1.086h3.37a1.087,1.087,0,0,0,1.086-1.086V144.4A1.087,1.087,0,0,0,365.254,143.318Zm-.629,4.5h-2.112v-2.786h2.112Z" transform="translate(-360.799 -143.318)" fill="#08bde2"/>
      </g>
    </g>
    <g id="Сгруппировать_44" data-name="Сгруппировать 44" transform="translate(39.639 26.837)">
      <g id="Сгруппировать_43" data-name="Сгруппировать 43">
        <path id="Контур_63" data-name="Контур 63" d="M250.909,229h-3.37a1.087,1.087,0,0,0-1.085,1.085v4.044a1.087,1.087,0,0,0,1.085,1.086h3.37a1.087,1.087,0,0,0,1.085-1.086V230.09A1.087,1.087,0,0,0,250.909,229Zm-.629,4.5h-2.112v-2.786h2.112Z" transform="translate(-246.454 -229.005)" fill="#08bde2"/>
      </g>
    </g>
    <g id="Сгруппировать_46" data-name="Сгруппировать 46" transform="translate(46.339 26.837)">
      <g id="Сгруппировать_45" data-name="Сгруппировать 45">
        <path id="Контур_64" data-name="Контур 64" d="M308.082,229h-3.37a1.087,1.087,0,0,0-1.085,1.085v4.044a1.087,1.087,0,0,0,1.085,1.086h3.37a1.087,1.087,0,0,0,1.085-1.086V230.09A1.087,1.087,0,0,0,308.082,229Zm-.629,4.5h-2.112v-2.786h2.112Z" transform="translate(-303.627 -229.005)" fill="#08bde2"/>
      </g>
    </g>
    <g id="Сгруппировать_48" data-name="Сгруппировать 48" transform="translate(53.039 26.837)">
      <g id="Сгруппировать_47" data-name="Сгруппировать 47">
        <path id="Контур_65" data-name="Контур 65" d="M365.254,229h-3.37a1.087,1.087,0,0,0-1.085,1.085v4.044a1.087,1.087,0,0,0,1.085,1.086h3.37a1.087,1.087,0,0,0,1.086-1.086V230.09A1.087,1.087,0,0,0,365.254,229Zm-.629,4.5h-2.112v-2.786h2.112Z" transform="translate(-360.799 -229.005)" fill="#08bde2"/>
      </g>
    </g>
    <g id="Сгруппировать_50" data-name="Сгруппировать 50" transform="translate(53.039 36.878)">
      <g id="Сгруппировать_49" data-name="Сгруппировать 49">
        <path id="Контур_66" data-name="Контур 66" d="M365.254,314.692h-3.37a1.087,1.087,0,0,0-1.085,1.085v4.044a1.087,1.087,0,0,0,1.085,1.085h3.37a1.087,1.087,0,0,0,1.086-1.085v-4.044A1.087,1.087,0,0,0,365.254,314.692Zm-.629,4.5h-2.112v-2.786h2.112Z" transform="translate(-360.799 -314.692)" fill="#08bde2"/>
      </g>
    </g>
    <g id="Сгруппировать_52" data-name="Сгруппировать 52" transform="translate(12.186)">
      <g id="Сгруппировать_51" data-name="Сгруппировать 51" transform="translate(0)">
        <path id="Контур_67" data-name="Контур 67" d="M68.715,40.7a3.57,3.57,0,0,0-4.93-.953l-2.357,1.577V4.449H61.6a1.127,1.127,0,0,0,1.125-1.125v-2.2A1.127,1.127,0,0,0,61.6,0H56.126a.857.857,0,0,0,0,1.714h4.885v1.02H36.944V1.714H50.758a.857.857,0,1,0,0-1.714h-14.4A1.127,1.127,0,0,0,35.23,1.125v2.2a1.127,1.127,0,0,0,1.125,1.125h.435v11.01H35.03V13.343a1.337,1.337,0,0,0-1.336-1.336H27.222a1.337,1.337,0,0,0-1.336,1.336v2.116H24.655a1.39,1.39,0,0,0-1.388,1.388V36.5q-.544-.035-1.091-.036H20.824v-.446a3.019,3.019,0,0,0-3.016-3.016H15.2a3.019,3.019,0,0,0-3.016,3.016v12.24a.857.857,0,1,0,1.714,0V36.023a1.3,1.3,0,0,1,1.3-1.3h2.606a1.3,1.3,0,0,1,1.3,1.3V55.31a1.3,1.3,0,0,1-1.3,1.3H15.2a1.3,1.3,0,0,1-1.3-1.3V53.628a.857.857,0,0,0-1.714,0V55.31A3.019,3.019,0,0,0,15.2,58.326h2.606a3.02,3.02,0,0,0,3.016-3.016v-.049l11.869,4.495q.035.013.071.023A5.722,5.722,0,0,0,34.323,60a5.371,5.371,0,0,0,.837-.066h0l17.52-2.525.013,0a8.624,8.624,0,0,0,4.086-1.831l.031-.027L68.136,45.365A3.571,3.571,0,0,0,68.715,40.7ZM38.5,4.449h21.21v38.02l-7.132,4.773-2.391-.134-.061-.612a5.238,5.238,0,0,0-.3-1.29q-.075-.2-.166-.4a5.189,5.189,0,0,0-1.284-1.713h2.409a1.087,1.087,0,0,0,1.085-1.086V37.963a1.087,1.087,0,0,0-1.085-1.085h-3.37a1.087,1.087,0,0,0-1.085,1.085v4.024a5.3,5.3,0,0,0-.666-.139l-.022,0-.471-.054V37.963a1.087,1.087,0,0,0-1.086-1.086h-3.37a1.087,1.087,0,0,0-1.085,1.086v3.191L38.5,41.023V4.449Zm9.549,36.929V38.592h2.112v2.786Zm-4.588-2.786v2.786H41.584l-.23-.026V38.592ZM27.6,13.721h5.715v1.737H27.6Zm-2.62,3.452H36.79v2.681H27.11A1.006,1.006,0,0,0,26.1,20.858v2.588a1.006,1.006,0,0,0,1.005,1.005h9.68v2.411H27.11a1.006,1.006,0,0,0-1.005,1v2.588a1.006,1.006,0,0,0,1.005,1h9.68v2.411H27.11a1.006,1.006,0,0,0-1.005,1v2.046q-.218-.051-.438-.1l-.208-.041-.244-.045c-.078-.014-.156-.029-.234-.042Zm11.81,4.395v1.169H27.819V21.568Zm0,7.009v1.169H27.819V28.577Zm-8.971,8.179V35.587H36.79v1.169Zm8.971,1.714v2.356l-.264-.03a15.607,15.607,0,0,1-1.637-.323,15.4,15.4,0,0,1-3.015-1.109q-.193-.095-.383-.2-.311-.164-.616-.341c-.15-.088-.3-.172-.452-.254l-.1-.053-.09-.049Zm30.2,5.616L55.682,54.26a6.907,6.907,0,0,1-3.251,1.453l-17.52,2.525-.024,0a3.844,3.844,0,0,1-1.623-.1l-12.44-4.711V38.183h1.351a15.485,15.485,0,0,1,1.855.114q.187.023.373.049l.054.008q.47.07.932.167c.1.02.192.041.287.063l.143.034c.124.03.248.061.372.094l.067.018a15.525,15.525,0,0,1,2.814,1.07l.081.041q.172.087.342.178l.1.055c.137.074.272.15.407.229l.006,0q.547.32,1.111.6A17.137,17.137,0,0,0,36.3,42.495l.022,0,1.231.142,1,.115,2.311.266.574.066h0l4.006.461a3.491,3.491,0,0,1,2.982,3.117l.03.3L32.388,45.4a.857.857,0,0,0-.166,1.706l17.032,1.66a.838.838,0,0,0,.109.014l3.41.191h.048c.017,0,.034,0,.051,0s.039,0,.058,0,.049-.009.073-.014.038-.007.057-.013.051-.018.076-.028.032-.011.047-.018a.863.863,0,0,0,.115-.064l7.751-5.187h0l3.692-2.471a1.847,1.847,0,0,1,2.253,2.918Z" transform="translate(-12.186)" fill="#08bde2"/>
      </g>
    </g>
  </g>
</svg>
