<svg xmlns="http://www.w3.org/2000/svg" width="59.547" height="60" viewBox="0 0 59.547 60">
  <g id="piggy-bank" transform="translate(-1.85)">
    <g id="Сгруппировать_30" data-name="Сгруппировать 30" transform="translate(1.85)">
      <path id="Контур_55" data-name="Контур 55" d="M70.5,65.435h-.93a23.813,23.813,0,0,0-6.926-9.582v-.012A6.4,6.4,0,0,1,63.672,50.6a3.031,3.031,0,0,0-.012-3.28,3.07,3.07,0,0,0-2.974-1.4A12.74,12.74,0,0,0,52.1,50.346a30.514,30.514,0,0,0-4.479-.881,1.466,1.466,0,0,0-.343,2.913,27.071,27.071,0,0,1,4.956,1.065,1.475,1.475,0,0,0,1.664-.575,9.634,9.634,0,0,1,7.171-4.026.125.125,0,0,1,.135.061.123.123,0,0,1,0,.147,9.279,9.279,0,0,0-1.358,7.6v.037a1.447,1.447,0,0,0,.551,1.1,20.684,20.684,0,0,1,6.767,9.57,1.474,1.474,0,0,0,1.4,1.016h1.97a1.206,1.206,0,0,1,1.212,1.212v6.608A1.206,1.206,0,0,1,70.525,77.4h-1.86a1.469,1.469,0,0,0-1.407,1.04,20.335,20.335,0,0,1-6.033,9.19l-.024.024-.012.012c-.11.1-.22.184-.33.281-.012.012-.024.024-.037.024a10.206,10.206,0,0,0-3.475,7.134v2.2H48.522V95.245a1.471,1.471,0,0,0-1.628-1.456c-.979.1-1.958.159-2.937.159a29.117,29.117,0,0,1-3.732-.245,1.449,1.449,0,0,0-1.163.355,1.478,1.478,0,0,0-.5,1.1v2.166H29.738v-.71a13.908,13.908,0,0,0-3.745-8.909,21.949,21.949,0,0,1-4-6.082c-.012-.024-.012-.037-.024-.049a18.861,18.861,0,0,1-1.554-4.148c0-.012-.012-.024-.012-.037v-.024a18.168,18.168,0,0,1-.514-4.3,17.786,17.786,0,0,1,.257-3.023,1.47,1.47,0,1,0-2.9-.477,21.038,21.038,0,0,0-.294,3.512,21.636,21.636,0,0,0,.575,4.932.227.227,0,0,0,.024.086.178.178,0,0,1,.012.073,22.119,22.119,0,0,0,1.774,4.736,24.555,24.555,0,0,0,4.552,6.865A10.946,10.946,0,0,1,26.8,96.738v.746a.752.752,0,0,0,.012.171,2.919,2.919,0,0,0,2.9,2.619h8.86A2.925,2.925,0,0,0,41.5,97.35V96.8a32.346,32.346,0,0,0,4.075.061v.5a2.925,2.925,0,0,0,2.925,2.925h8.86a2.925,2.925,0,0,0,2.925-2.925V95.2a7.3,7.3,0,0,1,2.5-5.005l.33-.294.024-.024c.024-.024.061-.049.086-.073a23.5,23.5,0,0,0,6.486-9.447h.8A4.152,4.152,0,0,0,74.649,76.2V69.6A4.155,4.155,0,0,0,70.5,65.435Z" transform="translate(-15.102 -40.287)" fill="#08bde2"/>
      <path id="Контур_56" data-name="Контур 56" d="M16.229,28.758A14.379,14.379,0,1,0,1.85,14.379,14.394,14.394,0,0,0,16.229,28.758Zm0-25.821A11.442,11.442,0,1,1,4.787,14.379,11.448,11.448,0,0,1,16.229,2.937Z" transform="translate(-1.85)" fill="#08bde2"/>
    </g>
  </g>
</svg>
