<svg xmlns="http://www.w3.org/2000/svg" width="29.101" height="29.103" viewBox="0 0 29.101 29.103">
  <path id="shield" d="M14.5,29.1a1.137,1.137,0,0,1-.508-.12,25.423,25.423,0,0,1-6.6-5.265,27.961,27.961,0,0,1-4.733-7.023A28.943,28.943,0,0,1,0,6.319a1.137,1.137,0,0,1,1.06-1.213,3.986,3.986,0,0,0,3.713-3.97A1.137,1.137,0,0,1,5.912,0h17.28a1.137,1.137,0,0,1,1.137,1.137,3.986,3.986,0,0,0,3.711,3.97A1.137,1.137,0,0,1,29.1,6.348a30.176,30.176,0,0,1-3.368,11.409,1.137,1.137,0,0,1-2.007-1.069,27.69,27.69,0,0,0,2.994-9.5,6.281,6.281,0,0,1-4.556-4.91H6.945A6.279,6.279,0,0,1,2.36,7.191,25.558,25.558,0,0,0,8.995,22.109a25.03,25.03,0,0,0,5.494,4.55,25.767,25.767,0,0,0,6.191-5.445,1.137,1.137,0,1,1,1.749,1.453,26.32,26.32,0,0,1-7.416,6.311,1.135,1.135,0,0,1-.518.125Zm.879-6.152a1.137,1.137,0,0,0-.221-1.592,21.311,21.311,0,0,1-2.765-2.5,20.617,20.617,0,0,1-5-9.333A10.908,10.908,0,0,0,8.666,8.363a10.843,10.843,0,0,0,1.662-2.314A1.137,1.137,0,1,0,8.322,4.978,8.573,8.573,0,0,1,7.009,6.806a8.59,8.59,0,0,1-1.52,1.281A1.137,1.137,0,0,0,5,9.263,22.893,22.893,0,0,0,10.722,20.4a23.569,23.569,0,0,0,3.061,2.771,1.137,1.137,0,0,0,1.592-.222Zm0,0" transform="translate(0 0)" fill="#08bde2"/>
</svg>
