<svg xmlns="http://www.w3.org/2000/svg" width="41.9" height="20.95" viewBox="0 0 41.9 20.95">
  <g id="menu_6_" data-name="menu (6)" transform="translate(0 -96.243)">
    <g id="Menu_1_" transform="translate(0 96.243)">
      <path id="Контур_99" data-name="Контур 99" d="M1.309,98.862H40.59a1.309,1.309,0,0,0,0-2.619H1.309a1.309,1.309,0,0,0,0,2.619Z" transform="translate(0 -96.243)"/>
      <path id="Контур_100" data-name="Контур 100" d="M40.59,180.455H1.309a1.309,1.309,0,1,0,0,2.619H40.59a1.309,1.309,0,1,0,0-2.619Z" transform="translate(0 -171.289)"/>
      <path id="Контур_101" data-name="Контур 101" d="M147.8,264.667H121.612a1.309,1.309,0,1,0,0,2.619H147.8a1.309,1.309,0,1,0,0-2.619Z" transform="translate(-107.209 -246.336)"/>
    </g>
  </g>
</svg>
