<svg xmlns="http://www.w3.org/2000/svg" width="12.589" height="12.009" viewBox="0 0 12.589 12.009">
  <g id="star_1_" data-name="star (1)" transform="translate(0 -11.796)">
    <g id="Сгруппировать_1" data-name="Сгруппировать 1" transform="translate(0 11.796)">
      <path id="Контур_2" data-name="Контур 2" d="M12.571,16.356a.369.369,0,0,0-.3-.251l-3.9-.567L6.625,12a.369.369,0,0,0-.661,0L4.218,15.538l-3.9.567a.369.369,0,0,0-.2.629l2.824,2.753-.667,3.887a.369.369,0,0,0,.535.389l3.491-1.835,3.49,1.835a.369.369,0,0,0,.535-.389l-.667-3.887,2.824-2.753A.369.369,0,0,0,12.571,16.356Z" transform="translate(0 -11.796)" fill="#0ab74a"/>
    </g>
  </g>
</svg>
